<svg xmlns="http://www.w3.org/2000/svg" xmlns:xlink="http://www.w3.org/1999/xlink" width="500" zoomAndPan="magnify" viewBox="0 0 375 374.999991" height="500" preserveAspectRatio="xMidYMid meet" version="1.2"><defs><clipPath id="5fac5a2fd1"><path d="M 16.914062 12 L 363 12 L 363 369 L 16.914062 369 Z M 16.914062 12 "/></clipPath><clipPath id="401a52575f"><path d="M 17.769531 12 L 363.96875 12 L 363.96875 369 L 17.769531 369 Z M 17.769531 12 "/></clipPath></defs><g id="f68d245508"><rect x="0" width="375" y="0" height="374.999991" style="fill:#ffffff;fill-opacity:1;stroke:none;"/><rect x="0" width="375" y="0" height="374.999991" style="fill:#99a1af;fill-opacity:1;stroke:none;"/><g clip-rule="nonzero" clip-path="url(#5fac5a2fd1)"><path style=" stroke:none;fill-rule:evenodd;fill:#ffffff;fill-opacity:1;" d="M 146.261719 17.601562 C 192.894531 5.878906 239.996094 13.742188 278.730469 36.105469 C 318.214844 58.898438 349 96.757812 361.734375 144.277344 C 362.011719 145.328125 362.28125 146.378906 362.542969 147.425781 L 359.820312 148.378906 C 359.542969 147.257812 359.257812 146.140625 358.960938 145.019531 C 346.433594 98.265625 316.140625 61.015625 277.292969 38.585938 C 238.652344 16.277344 191.539062 8.636719 145.027344 20.882812 C 145.464844 19.800781 145.875 18.707031 146.261719 17.601562 Z M 19.636719 233.003906 C 19.867188 233.921875 20.101562 234.832031 20.347656 235.75 C 32.875 282.503906 63.167969 319.753906 102.011719 342.183594 C 140.835938 364.597656 188.210938 372.207031 234.945312 359.710938 C 234.492188 360.796875 234.066406 361.898438 233.664062 363.011719 C 186.828125 374.964844 139.480469 367.121094 100.578125 344.664062 C 61.09375 321.867188 30.304688 284.011719 17.574219 236.488281 C 17.351562 235.644531 17.128906 234.800781 16.914062 233.957031 Z M 19.636719 233.003906 "/></g><g style="fill:#ffffff;fill-opacity:1;"><g transform="translate(54.301606, 204.771542)"><path style="stroke:none" d="M 24.21875 -19.8125 C 26.1875 -18.894531 27.722656 -17.695312 28.828125 -16.21875 C 29.941406 -14.738281 30.5 -13.023438 30.5 -11.078125 C 30.5 -7.265625 29.242188 -4.460938 26.734375 -2.671875 C 24.234375 -0.890625 21.109375 0 17.359375 0 L 4.859375 0 L 4.859375 -37.59375 L 15.890625 -37.59375 C 19.867188 -37.59375 23 -36.78125 25.28125 -35.15625 C 27.5625 -33.539062 28.703125 -31.203125 28.703125 -28.140625 C 28.703125 -26.265625 28.3125 -24.617188 27.53125 -23.203125 C 26.75 -21.796875 25.644531 -20.664062 24.21875 -19.8125 Z M 12.265625 -22.21875 L 16.75 -22.21875 C 18.113281 -22.21875 19.171875 -22.632812 19.921875 -23.46875 C 20.671875 -24.300781 21.046875 -25.332031 21.046875 -26.5625 C 21.046875 -27.820312 20.617188 -28.78125 19.765625 -29.4375 C 18.910156 -30.101562 17.738281 -30.4375 16.25 -30.4375 L 12.265625 -30.4375 Z M 17.015625 -6.890625 C 18.742188 -6.890625 20.144531 -7.238281 21.21875 -7.9375 C 22.289062 -8.632812 22.828125 -9.679688 22.828125 -11.078125 C 22.828125 -13.734375 20.71875 -15.0625 16.5 -15.0625 L 12.265625 -15.0625 L 12.265625 -6.890625 Z M 17.015625 -6.890625 "/></g></g><g style="fill:#ffffff;fill-opacity:1;"><g transform="translate(128.217913, 204.771542)"><path style="stroke:none" d="M 12.265625 -37.59375 L 12.265625 -7.15625 L 29.9375 -7.15625 L 29.9375 0 L 4.859375 0 L 4.859375 -37.59375 Z M 12.265625 -37.59375 "/></g></g><g style="fill:#ffffff;fill-opacity:1;"><g transform="translate(201.827793, 204.771542)"><path style="stroke:none" d="M 2.546875 -18.75 C 2.546875 -22.15625 3.40625 -25.335938 5.125 -28.296875 C 6.851562 -31.253906 9.1875 -33.609375 12.125 -35.359375 C 15.070312 -37.117188 18.265625 -38 21.703125 -38 C 25.140625 -38 28.332031 -37.117188 31.28125 -35.359375 C 34.226562 -33.609375 36.578125 -31.253906 38.328125 -28.296875 C 40.085938 -25.335938 40.96875 -22.15625 40.96875 -18.75 C 40.96875 -15.269531 40.085938 -12.066406 38.328125 -9.140625 C 36.578125 -6.210938 34.226562 -3.890625 31.28125 -2.171875 C 28.332031 -0.453125 25.140625 0.40625 21.703125 0.40625 C 18.234375 0.40625 15.035156 -0.453125 12.109375 -2.171875 C 9.179688 -3.890625 6.851562 -6.210938 5.125 -9.140625 C 3.40625 -12.066406 2.546875 -15.269531 2.546875 -18.75 Z M 10.21875 -18.75 C 10.21875 -16.570312 10.734375 -14.5625 11.765625 -12.71875 C 12.804688 -10.875 14.21875 -9.414062 16 -8.34375 C 17.789062 -7.28125 19.78125 -6.75 21.96875 -6.75 C 24.070312 -6.75 25.992188 -7.28125 27.734375 -8.34375 C 29.472656 -9.414062 30.832031 -10.863281 31.8125 -12.6875 C 32.800781 -14.507812 33.296875 -16.53125 33.296875 -18.75 C 33.296875 -20.988281 32.785156 -23.03125 31.765625 -24.875 C 30.742188 -26.71875 29.359375 -28.171875 27.609375 -29.234375 C 25.859375 -30.304688 23.910156 -30.84375 21.765625 -30.84375 C 19.617188 -30.84375 17.664062 -30.304688 15.90625 -29.234375 C 14.15625 -28.171875 12.769531 -26.71875 11.75 -24.875 C 10.726562 -23.03125 10.21875 -20.988281 10.21875 -18.75 Z M 10.21875 -18.75 "/></g></g><g style="fill:#ffffff;fill-opacity:1;"><g transform="translate(286.213967, 204.771542)"><path style="stroke:none" d="M 35.34375 -3.78125 C 34.769531 -3.164062 33.738281 -2.523438 32.25 -1.859375 C 30.769531 -1.203125 29.132812 -0.660156 27.34375 -0.234375 C 25.5625 0.191406 23.9375 0.40625 22.46875 0.40625 C 18.488281 0.40625 14.988281 -0.363281 11.96875 -1.90625 C 8.957031 -3.457031 6.632812 -5.601562 5 -8.34375 C 3.363281 -11.09375 2.546875 -14.21875 2.546875 -17.71875 C 2.546875 -22.113281 3.414062 -25.832031 5.15625 -28.875 C 6.894531 -31.925781 9.226562 -34.207031 12.15625 -35.71875 C 15.082031 -37.238281 18.316406 -38 21.859375 -38 C 24.140625 -38 26.285156 -37.742188 28.296875 -37.234375 C 30.304688 -36.722656 32.078125 -36.0625 33.609375 -35.25 L 31.203125 -28.34375 C 30.222656 -28.894531 28.867188 -29.398438 27.140625 -29.859375 C 25.421875 -30.316406 23.984375 -30.546875 22.828125 -30.546875 C 18.742188 -30.546875 15.617188 -29.523438 13.453125 -27.484375 C 11.296875 -25.441406 10.21875 -22.410156 10.21875 -18.390625 C 10.21875 -16.078125 10.742188 -14.054688 11.796875 -12.328125 C 12.847656 -10.609375 14.316406 -9.289062 16.203125 -8.375 C 18.097656 -7.457031 20.253906 -7 22.671875 -7 C 24.992188 -7 26.71875 -7.320312 27.84375 -7.96875 L 27.84375 -12.515625 L 21.34375 -12.515625 L 21.34375 -19.671875 L 35.34375 -19.671875 Z M 35.34375 -3.78125 "/></g></g><g style="fill:#ffffff;fill-opacity:1;"><g transform="translate(107.851225, 245.508999)"><path style="stroke:none" d="M 13.578125 -15.53125 C 11.796875 -16.507812 10.25 -17 8.9375 -17 C 8.039062 -17 7.347656 -16.820312 6.859375 -16.46875 C 6.367188 -16.125 6.125 -15.597656 6.125 -14.890625 C 6.125 -14.242188 6.476562 -13.671875 7.1875 -13.171875 C 7.90625 -12.679688 8.859375 -12.210938 10.046875 -11.765625 C 11.015625 -11.421875 11.835938 -11.019531 12.515625 -10.5625 C 13.203125 -10.101562 13.773438 -9.472656 14.234375 -8.671875 C 14.691406 -7.878906 14.921875 -6.875 14.921875 -5.65625 C 14.921875 -4.59375 14.644531 -3.609375 14.09375 -2.703125 C 13.550781 -1.804688 12.75 -1.09375 11.6875 -0.5625 C 10.632812 -0.0390625 9.375 0.21875 7.90625 0.21875 C 6.675781 0.21875 5.457031 0.0390625 4.25 -0.3125 C 3.050781 -0.675781 1.929688 -1.226562 0.890625 -1.96875 L 2.671875 -5.125 C 3.378906 -4.601562 4.1875 -4.175781 5.09375 -3.84375 C 6 -3.507812 6.816406 -3.34375 7.546875 -3.34375 C 8.398438 -3.34375 9.140625 -3.519531 9.765625 -3.875 C 10.398438 -4.238281 10.71875 -4.832031 10.71875 -5.65625 C 10.71875 -6.707031 9.722656 -7.625 7.734375 -8.40625 C 6.566406 -8.863281 5.59375 -9.304688 4.8125 -9.734375 C 4.03125 -10.160156 3.359375 -10.769531 2.796875 -11.5625 C 2.234375 -12.363281 1.953125 -13.367188 1.953125 -14.578125 C 1.953125 -16.335938 2.53125 -17.753906 3.6875 -18.828125 C 4.84375 -19.910156 6.390625 -20.5 8.328125 -20.59375 C 9.847656 -20.59375 11.113281 -20.421875 12.125 -20.078125 C 13.144531 -19.734375 14.140625 -19.242188 15.109375 -18.609375 Z M 13.578125 -15.53125 "/></g></g><g style="fill:#ffffff;fill-opacity:1;"><g transform="translate(135.207677, 245.508999)"><path style="stroke:none" d="M 15.0625 -20.484375 L 15.0625 -16.578125 L 10.078125 -16.578125 L 10.078125 0 L 6.03125 0 L 6.03125 -16.578125 L 1.25 -16.578125 L 1.25 -20.484375 Z M 15.0625 -20.484375 "/></g></g><g style="fill:#ffffff;fill-opacity:1;"><g transform="translate(162.647608, 245.508999)"><path style="stroke:none" d="M 6.265625 -7.5625 C 6.265625 -6.914062 6.457031 -6.296875 6.84375 -5.703125 C 7.238281 -5.109375 7.757812 -4.625 8.40625 -4.25 C 9.050781 -3.882812 9.742188 -3.703125 10.484375 -3.703125 C 11.285156 -3.703125 12.019531 -3.882812 12.6875 -4.25 C 13.351562 -4.625 13.875 -5.109375 14.25 -5.703125 C 14.632812 -6.296875 14.828125 -6.914062 14.828125 -7.5625 L 14.828125 -20.484375 L 18.8125 -20.484375 L 18.8125 -7.484375 C 18.8125 -6.015625 18.4375 -4.691406 17.6875 -3.515625 C 16.945312 -2.335938 15.941406 -1.421875 14.671875 -0.765625 C 13.398438 -0.109375 12.003906 0.21875 10.484375 0.21875 C 8.960938 0.21875 7.570312 -0.109375 6.3125 -0.765625 C 5.050781 -1.421875 4.050781 -2.335938 3.3125 -3.515625 C 2.582031 -4.691406 2.21875 -6.015625 2.21875 -7.484375 L 2.21875 -20.484375 L 6.265625 -20.484375 Z M 6.265625 -7.5625 "/></g></g><g style="fill:#ffffff;fill-opacity:1;"><g transform="translate(194.817746, 245.508999)"><path style="stroke:none" d="M 2.640625 -20.484375 L 8.765625 -20.484375 C 11.378906 -20.484375 13.53125 -19.976562 15.21875 -18.96875 C 16.90625 -17.957031 18.132812 -16.648438 18.90625 -15.046875 C 19.675781 -13.441406 20.0625 -11.71875 20.0625 -9.875 C 20.0625 -7.90625 19.597656 -6.171875 18.671875 -4.671875 C 17.742188 -3.171875 16.492188 -2.015625 14.921875 -1.203125 C 13.359375 -0.398438 11.640625 0 9.765625 0 L 2.640625 0 Z M 9.078125 -3.890625 C 11.171875 -3.890625 12.828125 -4.425781 14.046875 -5.5 C 15.273438 -6.582031 15.890625 -8.132812 15.890625 -10.15625 C 15.890625 -11.789062 15.550781 -13.085938 14.875 -14.046875 C 14.195312 -15.015625 13.40625 -15.679688 12.5 -16.046875 C 11.601562 -16.421875 10.757812 -16.609375 9.96875 -16.609375 L 6.671875 -16.609375 L 6.671875 -3.890625 Z M 9.078125 -3.890625 "/></g></g><g style="fill:#ffffff;fill-opacity:1;"><g transform="translate(227.405262, 245.508999)"><path style="stroke:none" d="M 6.671875 -20.484375 L 6.671875 0 L 2.640625 0 L 2.640625 -20.484375 Z M 6.671875 -20.484375 "/></g></g><g style="fill:#ffffff;fill-opacity:1;"><g transform="translate(247.861189, 245.508999)"><path style="stroke:none" d="M 1.390625 -10.21875 C 1.390625 -12.070312 1.859375 -13.804688 2.796875 -15.421875 C 3.734375 -17.035156 5.003906 -18.316406 6.609375 -19.265625 C 8.210938 -20.222656 9.953125 -20.703125 11.828125 -20.703125 C 13.703125 -20.703125 15.441406 -20.222656 17.046875 -19.265625 C 18.648438 -18.316406 19.925781 -17.035156 20.875 -15.421875 C 21.832031 -13.804688 22.3125 -12.070312 22.3125 -10.21875 C 22.3125 -8.320312 21.832031 -6.578125 20.875 -4.984375 C 19.925781 -3.390625 18.648438 -2.125 17.046875 -1.1875 C 15.441406 -0.25 13.703125 0.21875 11.828125 0.21875 C 9.929688 0.21875 8.1875 -0.25 6.59375 -1.1875 C 5 -2.125 3.734375 -3.390625 2.796875 -4.984375 C 1.859375 -6.578125 1.390625 -8.320312 1.390625 -10.21875 Z M 5.5625 -10.21875 C 5.5625 -9.03125 5.84375 -7.929688 6.40625 -6.921875 C 6.976562 -5.921875 7.75 -5.128906 8.71875 -4.546875 C 9.695312 -3.960938 10.78125 -3.671875 11.96875 -3.671875 C 13.113281 -3.671875 14.160156 -3.960938 15.109375 -4.546875 C 16.054688 -5.128906 16.796875 -5.914062 17.328125 -6.90625 C 17.867188 -7.90625 18.140625 -9.007812 18.140625 -10.21875 C 18.140625 -11.4375 17.859375 -12.546875 17.296875 -13.546875 C 16.742188 -14.554688 15.988281 -15.351562 15.03125 -15.9375 C 14.082031 -16.519531 13.023438 -16.8125 11.859375 -16.8125 C 10.691406 -16.8125 9.628906 -16.519531 8.671875 -15.9375 C 7.710938 -15.351562 6.953125 -14.554688 6.390625 -13.546875 C 5.835938 -12.546875 5.5625 -11.4375 5.5625 -10.21875 Z M 5.5625 -10.21875 "/></g></g><g style="fill:#ffffff;fill-opacity:1;"><g transform="translate(159.168712, 185.244447)"><path style="stroke:none" d="M 84.484375 -88.796875 C 85.609375 -88.171875 85.296875 -87.421875 83.546875 -86.546875 L 81.671875 -85.796875 C 81.546875 -85.671875 81.296875 -85.796875 80.921875 -86.171875 C 80.671875 -86.546875 80.671875 -86.859375 80.921875 -87.109375 C 81.171875 -87.484375 81.234375 -87.703125 81.109375 -87.765625 C 80.984375 -87.828125 80.421875 -87.859375 79.421875 -87.859375 C 78.921875 -87.984375 78.296875 -88.078125 77.546875 -88.140625 C 76.804688 -88.203125 76.125 -88.296875 75.5 -88.421875 C 74.625 -88.546875 72.53125 -88.703125 69.21875 -88.890625 C 65.90625 -89.078125 62.09375 -89.234375 57.78125 -89.359375 C 53.476562 -89.484375 49.265625 -89.609375 45.140625 -89.734375 C 41.023438 -89.859375 37.59375 -89.921875 34.84375 -89.921875 L 34.09375 -89.921875 C 33.84375 -89.921875 33.4375 -89.953125 32.875 -90.015625 C 32.3125 -90.078125 31.65625 -90.046875 30.90625 -89.921875 L 29.96875 -89.359375 C 29.84375 -89.109375 29.625 -88.859375 29.3125 -88.609375 C 29 -88.359375 28.71875 -88.046875 28.46875 -87.671875 L 26.78125 -85.984375 C 26.28125 -85.234375 25.65625 -84.515625 24.90625 -83.828125 C 24.164062 -83.140625 23.296875 -82.234375 22.296875 -81.109375 L 19.109375 -77.734375 C 18.359375 -76.742188 17.671875 -75.9375 17.046875 -75.3125 C 16.796875 -75.0625 16.390625 -74.625 15.828125 -74 C 15.265625 -73.375 14.671875 -72.75 14.046875 -72.125 C 12.421875 -70.25 11.171875 -68.78125 10.296875 -67.71875 C 9.421875 -66.65625 8.550781 -65.625 7.6875 -64.625 L 5.4375 -62.1875 L 3.75 -60.125 L -1.3125 -54.515625 L -7.5 -47.390625 L -10.484375 -43.828125 C -12.484375 -41.585938 -14.734375 -38.90625 -17.234375 -35.78125 C -19.734375 -32.65625 -22.070312 -29.625 -24.25 -26.6875 C -26.4375 -23.757812 -28.15625 -21.421875 -29.40625 -19.671875 C -30.03125 -18.671875 -30.65625 -17.515625 -31.28125 -16.203125 C -31.90625 -14.890625 -32.28125 -13.984375 -32.40625 -13.484375 C -32.40625 -12.859375 -32.15625 -12.546875 -31.65625 -12.546875 C -31.15625 -12.421875 -31.03125 -12.171875 -31.28125 -11.796875 C -31.40625 -11.546875 -31.84375 -11.421875 -32.59375 -11.421875 C -33.09375 -11.546875 -33.46875 -12.046875 -33.71875 -12.921875 C -33.84375 -13.671875 -33.59375 -14.859375 -32.96875 -16.484375 C -32.71875 -17.109375 -32.5 -17.671875 -32.3125 -18.171875 C -32.125 -18.671875 -32.03125 -18.859375 -32.03125 -18.734375 C -31.90625 -18.734375 -31.84375 -18.921875 -31.84375 -19.296875 C -31.84375 -19.296875 -31.8125 -19.328125 -31.75 -19.390625 C -31.6875 -19.453125 -31.65625 -19.546875 -31.65625 -19.671875 C -31.40625 -19.546875 -31.21875 -19.734375 -31.09375 -20.234375 C -30.96875 -20.484375 -30.90625 -20.796875 -30.90625 -21.171875 L -30.90625 -21.546875 C -30.65625 -21.421875 -29.53125 -22.734375 -27.53125 -25.484375 L -19.859375 -35.78125 L -15.171875 -41.59375 C -14.171875 -42.832031 -13.265625 -43.953125 -12.453125 -44.953125 C -11.640625 -45.953125 -11.171875 -46.515625 -11.046875 -46.640625 C -10.796875 -46.765625 -10.453125 -47.078125 -10.015625 -47.578125 C -9.578125 -48.078125 -9.109375 -48.640625 -8.609375 -49.265625 C -7.117188 -51.265625 -6.0625 -52.609375 -5.4375 -53.296875 C -4.8125 -53.984375 -4.4375 -54.328125 -4.3125 -54.328125 C -4.1875 -54.328125 -3.9375 -54.640625 -3.5625 -55.265625 L -2.0625 -57.140625 L -0.5625 -58.828125 C 1.4375 -61.191406 2.875 -62.875 3.75 -63.875 C 4.625 -64.875 5.3125 -65.625 5.8125 -66.125 C 6.8125 -67.125 7.3125 -67.6875 7.3125 -67.8125 C 7.3125 -67.6875 7.804688 -68.21875 8.796875 -69.40625 C 9.796875 -70.59375 10.296875 -71.1875 10.296875 -71.1875 C 10.921875 -72.0625 12.046875 -73.429688 13.671875 -75.296875 C 15.296875 -77.171875 17.015625 -79.109375 18.828125 -81.109375 C 20.640625 -83.109375 21.984375 -84.546875 22.859375 -85.421875 L 25.109375 -87.859375 L 25.65625 -88.609375 L 26.21875 -88.984375 C 26.34375 -89.234375 26.46875 -89.421875 26.59375 -89.546875 C 26.71875 -89.671875 26.84375 -89.796875 26.96875 -89.921875 C 24.976562 -89.921875 22.671875 -89.921875 20.046875 -89.921875 C 17.421875 -89.921875 15.671875 -89.859375 14.796875 -89.734375 L 8.609375 -89.359375 L 3.5625 -89.171875 L -1.125 -88.796875 C -3.375 -88.671875 -5.460938 -88.515625 -7.390625 -88.328125 C -9.328125 -88.140625 -10.421875 -87.984375 -10.671875 -87.859375 C -11.921875 -87.609375 -13.296875 -87.421875 -14.796875 -87.296875 C -16.296875 -87.171875 -17.109375 -87.171875 -17.234375 -87.296875 C -17.859375 -87.921875 -17.296875 -88.484375 -15.546875 -88.984375 C -15.046875 -89.109375 -13.890625 -89.265625 -12.078125 -89.453125 C -10.265625 -89.640625 -8.359375 -89.828125 -6.359375 -90.015625 C -4.367188 -90.203125 -2.875 -90.296875 -1.875 -90.296875 L 2.25 -90.671875 L 28.65625 -91.234375 L 29.40625 -91.984375 L 30.90625 -93.65625 L 31.46875 -94.21875 C 31.71875 -94.46875 32.3125 -95 33.25 -95.8125 C 34.1875 -96.625 35.09375 -97.46875 35.96875 -98.34375 C 36.84375 -99.21875 37.34375 -99.71875 37.46875 -99.84375 C 37.59375 -100.09375 38.53125 -100.90625 40.28125 -102.28125 L 41.96875 -103.78125 C 42.09375 -104.03125 42.554688 -104.46875 43.359375 -105.09375 C 44.171875 -105.71875 44.640625 -106.03125 44.765625 -106.03125 C 45.140625 -106.03125 45.390625 -105.84375 45.515625 -105.46875 C 45.765625 -104.96875 45.703125 -104.53125 45.328125 -104.15625 L 44.578125 -103.21875 L 42.703125 -101.71875 C 42.085938 -101.21875 41.25 -100.46875 40.1875 -99.46875 C 39.125 -98.46875 38.40625 -97.71875 38.03125 -97.21875 C 37.28125 -96.34375 36.53125 -95.59375 35.78125 -94.96875 C 35.28125 -94.46875 34.65625 -93.84375 33.90625 -93.09375 C 33.15625 -92.351562 32.65625 -91.796875 32.40625 -91.421875 L 35.96875 -91.421875 L 41.21875 -91.234375 C 42.09375 -91.234375 44.273438 -91.171875 47.765625 -91.046875 C 51.265625 -90.921875 55.132812 -90.765625 59.375 -90.578125 C 63.625 -90.390625 67.5 -90.234375 71 -90.109375 C 74.5 -89.984375 76.742188 -89.859375 77.734375 -89.734375 C 79.859375 -89.609375 81.390625 -89.484375 82.328125 -89.359375 C 83.265625 -89.234375 83.984375 -89.046875 84.484375 -88.796875 Z M 84.484375 -88.796875 "/></g></g><g style="fill:#ffffff;fill-opacity:1;"><g transform="translate(178.275771, 185.244447)"><path style="stroke:none" d="M 67.4375 -103.03125 C 68.1875 -102.15625 68.0625 -101.03125 67.0625 -99.65625 C 66.6875 -99.03125 66.03125 -98.21875 65.09375 -97.21875 C 64.15625 -96.21875 63.4375 -95.59375 62.9375 -95.34375 L 60.125 -93.296875 C 59.632812 -92.796875 58.984375 -92.296875 58.171875 -91.796875 C 57.359375 -91.296875 56.703125 -90.859375 56.203125 -90.484375 L 53.390625 -88.796875 C 52.640625 -88.296875 52.078125 -88.046875 51.703125 -88.046875 C 51.203125 -87.796875 50.890625 -87.609375 50.765625 -87.484375 C 50.765625 -87.234375 50.453125 -86.984375 49.828125 -86.734375 L 48.703125 -86.359375 C 47.953125 -85.984375 46.671875 -85.328125 44.859375 -84.390625 C 43.054688 -83.453125 41.15625 -82.515625 39.15625 -81.578125 C 37.15625 -80.640625 35.46875 -79.859375 34.09375 -79.234375 C 33.09375 -78.734375 32.40625 -78.484375 32.03125 -78.484375 C 31.65625 -78.484375 30.59375 -78.046875 28.84375 -77.171875 L 25.65625 -75.875 C 25.539062 -75.75 25.109375 -75.5625 24.359375 -75.3125 C 23.609375 -75.0625 22.609375 -74.625 21.359375 -74 L 14.234375 -70.8125 L 13.296875 -70.25 L 10.109375 -67.0625 C 8.367188 -65.3125 6.46875 -63.40625 4.40625 -61.34375 C 2.34375 -59.289062 1.1875 -58.015625 0.9375 -57.515625 L 0.9375 -57.140625 C 1.0625 -57.015625 1.375 -57.078125 1.875 -57.328125 C 2 -57.328125 2.0625 -57.359375 2.0625 -57.421875 C 2.0625 -57.484375 2.125 -57.515625 2.25 -57.515625 C 3 -57.890625 3.84375 -58.265625 4.78125 -58.640625 C 5.71875 -59.015625 6.9375 -59.445312 8.4375 -59.9375 C 10.425781 -60.5625 11.609375 -60.625 11.984375 -60.125 C 12.109375 -59.875 11.859375 -59.378906 11.234375 -58.640625 C 9.484375 -56.890625 8.425781 -55.640625 8.0625 -54.890625 L 7.875 -54.328125 C 7.25 -53.078125 7.0625 -52.453125 7.3125 -52.453125 L 7.6875 -52.453125 L 8.4375 -52.640625 C 9.425781 -53.015625 11.171875 -53.765625 13.671875 -54.890625 C 16.171875 -56.015625 18.046875 -56.828125 19.296875 -57.328125 L 23.984375 -59.390625 C 24.359375 -59.390625 24.726562 -59.359375 25.09375 -59.296875 C 25.46875 -59.234375 25.222656 -58.890625 24.359375 -58.265625 C 23.234375 -57.890625 22.640625 -57.671875 22.578125 -57.609375 C 22.515625 -57.546875 22.453125 -57.484375 22.390625 -57.421875 C 22.328125 -57.359375 21.609375 -57.015625 20.234375 -56.390625 C 19.734375 -56.265625 19.328125 -56.046875 19.015625 -55.734375 C 18.703125 -55.421875 18.421875 -55.265625 18.171875 -55.265625 C 16.921875 -54.765625 16.203125 -54.421875 16.015625 -54.234375 C 15.828125 -54.046875 15.421875 -53.828125 14.796875 -53.578125 C 14.421875 -53.453125 13.296875 -52.984375 11.421875 -52.171875 C 9.546875 -51.359375 8.238281 -50.890625 7.5 -50.765625 L 7.125 -50.578125 C 6.75 -50.453125 6.25 -50.578125 5.625 -50.953125 C 4.875 -51.578125 4.8125 -52.640625 5.4375 -54.140625 L 6 -55.265625 C 6.25 -55.890625 6.625 -56.515625 7.125 -57.140625 C 7.625 -57.765625 7.9375 -58.078125 8.0625 -58.078125 C 8.1875 -58.078125 8.25 -58.140625 8.25 -58.265625 C 8.25 -58.390625 7.9375 -58.328125 7.3125 -58.078125 L 5.25 -57.328125 C 4.25 -57.078125 3.5625 -56.765625 3.1875 -56.390625 L 2.0625 -55.640625 L 1.875 -55.640625 L 0.75 -55.078125 L -1.5 -52.828125 L -1.875 -52.640625 L -2.4375 -52.265625 L -3 -51.703125 L -3.9375 -50.953125 L -4.5 -50.578125 C -4.75 -50.328125 -5.0625 -50.265625 -5.4375 -50.390625 C -5.5625 -50.515625 -5.78125 -50.671875 -6.09375 -50.859375 C -6.40625 -51.046875 -6.5625 -51.265625 -6.5625 -51.515625 C -6.5625 -51.890625 -6.40625 -52.265625 -6.09375 -52.640625 C -5.78125 -53.015625 -5.5 -53.328125 -5.25 -53.578125 L -3.5625 -55.453125 L -1.875 -57.515625 L -1.125 -58.265625 L 5.4375 -65.1875 C 6.4375 -66.0625 7.210938 -66.8125 7.765625 -67.4375 C 8.328125 -68.0625 8.609375 -68.375 8.609375 -68.375 C 8.492188 -68.5 8.21875 -68.5 7.78125 -68.375 C 7.34375 -68.25 7.125 -68.125 7.125 -68 C 7 -67.875 6.84375 -67.8125 6.65625 -67.8125 C 6.46875 -67.8125 6.3125 -67.75 6.1875 -67.625 L 2.8125 -66.5 C 1.8125 -66.25 1.125 -66 0.75 -65.75 L -1.125 -64.8125 C -2.125 -64.5625 -2.75 -64.4375 -3 -64.4375 C -3.75 -64.4375 -3.9375 -64.8125 -3.5625 -65.5625 C -3.3125 -65.8125 -2.8125 -66.0625 -2.0625 -66.3125 L 3.75 -68.375 L 5.625 -69.125 C 5.875 -69.375 6.25 -69.5625 6.75 -69.6875 C 7.5 -70.0625 8 -70.25 8.25 -70.25 C 8.375 -70.25 8.460938 -70.28125 8.515625 -70.34375 C 8.578125 -70.40625 8.609375 -70.4375 8.609375 -70.4375 C 8.609375 -70.4375 9.171875 -70.6875 10.296875 -71.1875 L 11.984375 -71.75 C 12.234375 -72 12.609375 -72.34375 13.109375 -72.78125 C 13.609375 -73.21875 14.109375 -73.6875 14.609375 -74.1875 L 20.984375 -79.796875 L 24.921875 -83.171875 L 30.90625 -87.859375 C 31.03125 -87.984375 31.625 -88.421875 32.6875 -89.171875 C 33.75 -89.921875 34.84375 -90.671875 35.96875 -91.421875 L 39.15625 -93.484375 L 40.84375 -94.59375 L 42.890625 -95.71875 C 47.265625 -98.21875 51.640625 -100.09375 56.015625 -101.34375 L 57.515625 -101.71875 C 58.515625 -102.21875 59.757812 -102.59375 61.25 -102.84375 L 63.3125 -103.21875 C 64.3125 -103.46875 65.21875 -103.5625 66.03125 -103.5 C 66.84375 -103.4375 67.3125 -103.28125 67.4375 -103.03125 Z M 65.5625 -100.21875 C 65.5625 -100.21875 65.59375 -100.28125 65.65625 -100.40625 C 65.71875 -100.53125 65.75 -100.65625 65.75 -100.78125 C 65.625 -101.15625 65.375 -101.40625 65 -101.53125 C 64.75 -101.65625 64.03125 -101.65625 62.84375 -101.53125 C 61.65625 -101.40625 60.9375 -101.28125 60.6875 -101.15625 L 57.703125 -100.21875 C 56.078125 -99.71875 54.140625 -99.0625 51.890625 -98.25 C 49.640625 -97.4375 47.640625 -96.59375 45.890625 -95.71875 C 43.523438 -94.46875 41.03125 -93 38.40625 -91.3125 C 35.78125 -89.632812 33.78125 -88.234375 32.40625 -87.109375 L 30.90625 -85.984375 C 30.78125 -85.984375 30.0625 -85.453125 28.75 -84.390625 C 27.4375 -83.328125 25.9375 -82.078125 24.25 -80.640625 C 22.570312 -79.203125 21.109375 -77.921875 19.859375 -76.796875 L 17.609375 -74.9375 C 17.484375 -74.9375 17.421875 -74.75 17.421875 -74.375 C 17.421875 -74.25 18.046875 -74.4375 19.296875 -74.9375 C 19.921875 -75.1875 20.421875 -75.4375 20.796875 -75.6875 C 21.171875 -75.9375 21.421875 -76.0625 21.546875 -76.0625 C 21.796875 -76.0625 22.421875 -76.304688 23.421875 -76.796875 C 23.921875 -77.046875 24.328125 -77.234375 24.640625 -77.359375 C 24.953125 -77.484375 25.171875 -77.546875 25.296875 -77.546875 C 25.421875 -77.546875 26.101562 -77.796875 27.34375 -78.296875 L 31.46875 -79.984375 L 35.21875 -81.671875 L 37.84375 -82.609375 C 38.09375 -82.734375 38.53125 -82.921875 39.15625 -83.171875 C 39.78125 -83.421875 40.34375 -83.734375 40.84375 -84.109375 L 44.390625 -85.796875 L 46.453125 -86.921875 L 48.703125 -88.046875 L 55.078125 -91.609375 C 56.328125 -92.359375 57.570312 -93.164062 58.8125 -94.03125 C 60.0625 -94.90625 60.9375 -95.59375 61.4375 -96.09375 L 63.3125 -97.59375 C 63.4375 -97.59375 63.8125 -98.03125 64.4375 -98.90625 Z M 65.5625 -100.21875 "/></g></g><g style="fill:#ffffff;fill-opacity:1;"><g transform="translate(205.250412, 185.244447)"><path style="stroke:none" d="M -1.875 -51.140625 C -3.375 -51.015625 -4.3125 -50.984375 -4.6875 -51.046875 C -5.0625 -51.109375 -5.3125 -51.453125 -5.4375 -52.078125 C -5.6875 -52.703125 -5.4375 -53.640625 -4.6875 -54.890625 C -3.6875 -56.390625 -2.25 -57.882812 -0.375 -59.375 C 1.5 -60.875 3.375 -61.9375 5.25 -62.5625 C 8.238281 -63.6875 9.921875 -63.75 10.296875 -62.75 C 10.421875 -62.25 9.050781 -61.003906 6.1875 -59.015625 C 4.5625 -57.890625 3.21875 -57.046875 2.15625 -56.484375 C 1.09375 -55.921875 0.0625 -55.515625 -0.9375 -55.265625 C -2.0625 -55.015625 -2.75 -54.578125 -3 -53.953125 C -3.5 -53.453125 -3.5625 -53.140625 -3.1875 -53.015625 C -2.0625 -52.640625 3.804688 -54.765625 14.421875 -59.390625 L 14.796875 -59.578125 L 15.359375 -59.578125 L 15.546875 -59.390625 C 16.046875 -59.140625 16.109375 -58.828125 15.734375 -58.453125 L 13.296875 -57.328125 L 4.875 -53.578125 C 3.25 -52.703125 1.96875 -52.140625 1.03125 -51.890625 C 0.09375 -51.640625 -0.875 -51.390625 -1.875 -51.140625 Z M -0.375 -57.328125 C -0.5 -57.203125 -0.28125 -57.234375 0.28125 -57.421875 C 0.84375 -57.609375 1.625 -57.953125 2.625 -58.453125 C 3.5 -58.953125 4.46875 -59.539062 5.53125 -60.21875 C 6.59375 -60.90625 7.1875 -61.3125 7.3125 -61.4375 C 7.3125 -61.6875 6.96875 -61.65625 6.28125 -61.34375 C 5.59375 -61.03125 4.9375 -60.75 4.3125 -60.5 C 3.6875 -60.375 2.78125 -59.875 1.59375 -59 C 0.40625 -58.132812 -0.25 -57.578125 -0.375 -57.328125 Z M -0.375 -57.328125 "/></g></g><g style="fill:#ffffff;fill-opacity:1;"><g transform="translate(141.972593, 286.614233)"><path style="stroke:none" d="M 6.75 -8.328125 L 6.75 -6.75 L 2.71875 -6.75 L 2.71875 -4.96875 L 6.296875 -4.96875 L 6.296875 -3.375 L 2.71875 -3.375 L 2.71875 -1.578125 L 6.90625 -1.578125 L 6.90625 0 L 1.078125 0 L 1.078125 -8.328125 Z M 6.75 -8.328125 "/></g></g><g style="fill:#ffffff;fill-opacity:1;"><g transform="translate(154.028798, 286.614233)"><path style="stroke:none" d="M 5.515625 -6.3125 C 4.796875 -6.707031 4.164062 -6.90625 3.625 -6.90625 C 3.269531 -6.90625 2.988281 -6.832031 2.78125 -6.6875 C 2.582031 -6.550781 2.484375 -6.335938 2.484375 -6.046875 C 2.484375 -5.785156 2.628906 -5.554688 2.921875 -5.359375 C 3.210938 -5.160156 3.597656 -4.96875 4.078125 -4.78125 C 4.472656 -4.632812 4.8125 -4.46875 5.09375 -4.28125 C 5.375 -4.101562 5.601562 -3.851562 5.78125 -3.53125 C 5.96875 -3.207031 6.0625 -2.796875 6.0625 -2.296875 C 6.0625 -1.867188 5.945312 -1.46875 5.71875 -1.09375 C 5.5 -0.726562 5.175781 -0.4375 4.75 -0.21875 C 4.320312 -0.0078125 3.8125 0.09375 3.21875 0.09375 C 2.71875 0.09375 2.222656 0.0195312 1.734375 -0.125 C 1.242188 -0.269531 0.785156 -0.492188 0.359375 -0.796875 L 1.09375 -2.078125 C 1.375 -1.867188 1.695312 -1.695312 2.0625 -1.5625 C 2.4375 -1.425781 2.769531 -1.359375 3.0625 -1.359375 C 3.414062 -1.359375 3.71875 -1.429688 3.96875 -1.578125 C 4.226562 -1.722656 4.359375 -1.960938 4.359375 -2.296875 C 4.359375 -2.722656 3.953125 -3.097656 3.140625 -3.421875 C 2.671875 -3.609375 2.273438 -3.785156 1.953125 -3.953125 C 1.640625 -4.128906 1.367188 -4.378906 1.140625 -4.703125 C 0.910156 -5.023438 0.796875 -5.429688 0.796875 -5.921875 C 0.796875 -6.640625 1.03125 -7.21875 1.5 -7.65625 C 1.96875 -8.09375 2.59375 -8.332031 3.375 -8.375 C 4 -8.375 4.515625 -8.300781 4.921875 -8.15625 C 5.335938 -8.019531 5.742188 -7.820312 6.140625 -7.5625 Z M 5.515625 -6.3125 "/></g></g><g style="fill:#ffffff;fill-opacity:1;"><g transform="translate(165.146295, 286.614233)"><path style="stroke:none" d="M 6.125 -8.328125 L 6.125 -6.75 L 4.09375 -6.75 L 4.09375 0 L 2.453125 0 L 2.453125 -6.75 L 0.515625 -6.75 L 0.515625 -8.328125 Z M 6.125 -8.328125 "/></g></g><g style="fill:#ffffff;fill-opacity:1;"><g transform="translate(176.297716, 286.614233)"><path style="stroke:none" d="M 1.078125 -8.328125 L 3.5625 -8.328125 C 4.625 -8.328125 5.5 -8.117188 6.1875 -7.703125 C 6.875 -7.296875 7.375 -6.765625 7.6875 -6.109375 C 8 -5.460938 8.15625 -4.765625 8.15625 -4.015625 C 8.15625 -3.210938 7.96875 -2.503906 7.59375 -1.890625 C 7.21875 -1.285156 6.707031 -0.816406 6.0625 -0.484375 C 5.425781 -0.160156 4.726562 0 3.96875 0 L 1.078125 0 Z M 3.6875 -1.578125 C 4.539062 -1.578125 5.210938 -1.796875 5.703125 -2.234375 C 6.203125 -2.671875 6.453125 -3.300781 6.453125 -4.125 C 6.453125 -4.789062 6.316406 -5.316406 6.046875 -5.703125 C 5.773438 -6.097656 5.453125 -6.367188 5.078125 -6.515625 C 4.710938 -6.671875 4.367188 -6.75 4.046875 -6.75 L 2.71875 -6.75 L 2.71875 -1.578125 Z M 3.6875 -1.578125 "/></g></g><g style="fill:#ffffff;fill-opacity:1;"><g transform="translate(189.541452, 286.614233)"><path style="stroke:none" d=""/></g></g><g style="fill:#ffffff;fill-opacity:1;"><g transform="translate(197.741016, 286.614233)"><path style="stroke:none" d="M 6.03125 -1.578125 L 6.03125 0 L 0.609375 0 C 1.015625 -0.40625 1.21875 -0.609375 1.21875 -0.609375 C 1.925781 -1.335938 2.472656 -1.921875 2.859375 -2.359375 C 3.253906 -2.796875 3.582031 -3.238281 3.84375 -3.6875 C 4.101562 -4.132812 4.234375 -4.5625 4.234375 -4.96875 C 4.234375 -5.28125 4.125 -5.53125 3.90625 -5.71875 C 3.695312 -5.90625 3.421875 -6 3.078125 -6 C 2.742188 -6 2.476562 -5.910156 2.28125 -5.734375 C 2.082031 -5.566406 1.984375 -5.375 1.984375 -5.15625 C 1.984375 -4.707031 2.132812 -4.332031 2.4375 -4.03125 L 1.421875 -3.109375 C 1.222656 -3.210938 1.039062 -3.382812 0.875 -3.625 C 0.71875 -3.863281 0.597656 -4.117188 0.515625 -4.390625 C 0.429688 -4.671875 0.390625 -4.910156 0.390625 -5.109375 C 0.390625 -5.535156 0.503906 -5.9375 0.734375 -6.3125 C 0.972656 -6.695312 1.316406 -7.003906 1.765625 -7.234375 C 2.210938 -7.472656 2.742188 -7.59375 3.359375 -7.59375 C 3.859375 -7.59375 4.300781 -7.476562 4.6875 -7.25 C 5.082031 -7.019531 5.390625 -6.710938 5.609375 -6.328125 C 5.828125 -5.941406 5.9375 -5.535156 5.9375 -5.109375 C 5.9375 -4.703125 5.859375 -4.304688 5.703125 -3.921875 C 5.546875 -3.535156 5.347656 -3.171875 5.109375 -2.828125 C 4.878906 -2.484375 4.566406 -2.066406 4.171875 -1.578125 Z M 6.03125 -1.578125 "/></g></g><g style="fill:#ffffff;fill-opacity:1;"><g transform="translate(208.858513, 286.614233)"><path style="stroke:none" d="M 3.546875 0.015625 C 2.953125 0.015625 2.414062 -0.125 1.9375 -0.40625 C 1.46875 -0.6875 1.09375 -1.109375 0.8125 -1.671875 C 0.53125 -2.242188 0.390625 -2.953125 0.390625 -3.796875 C 0.390625 -6.335938 1.441406 -7.601562 3.546875 -7.59375 C 4.148438 -7.601562 4.6875 -7.460938 5.15625 -7.171875 C 5.632812 -6.890625 6.007812 -6.460938 6.28125 -5.890625 C 6.5625 -5.328125 6.703125 -4.628906 6.703125 -3.796875 C 6.703125 -2.929688 6.5625 -2.210938 6.28125 -1.640625 C 6.007812 -1.078125 5.632812 -0.660156 5.15625 -0.390625 C 4.6875 -0.117188 4.148438 0.015625 3.546875 0.015625 Z M 3.546875 -1.5625 C 4.066406 -1.5625 4.4375 -1.765625 4.65625 -2.171875 C 4.882812 -2.578125 5 -3.128906 5 -3.828125 C 5 -5.273438 4.515625 -6 3.546875 -6 C 3.023438 -6 2.65625 -5.800781 2.4375 -5.40625 C 2.21875 -5.019531 2.109375 -4.484375 2.109375 -3.796875 C 2.109375 -3.109375 2.21875 -2.5625 2.4375 -2.15625 C 2.65625 -1.757812 3.023438 -1.5625 3.546875 -1.5625 Z M 3.546875 -1.5625 "/></g></g><g style="fill:#ffffff;fill-opacity:1;"><g transform="translate(220.484955, 286.614233)"><path style="stroke:none" d="M 6.03125 -1.578125 L 6.03125 0 L 0.609375 0 C 1.015625 -0.40625 1.21875 -0.609375 1.21875 -0.609375 C 1.925781 -1.335938 2.472656 -1.921875 2.859375 -2.359375 C 3.253906 -2.796875 3.582031 -3.238281 3.84375 -3.6875 C 4.101562 -4.132812 4.234375 -4.5625 4.234375 -4.96875 C 4.234375 -5.28125 4.125 -5.53125 3.90625 -5.71875 C 3.695312 -5.90625 3.421875 -6 3.078125 -6 C 2.742188 -6 2.476562 -5.910156 2.28125 -5.734375 C 2.082031 -5.566406 1.984375 -5.375 1.984375 -5.15625 C 1.984375 -4.707031 2.132812 -4.332031 2.4375 -4.03125 L 1.421875 -3.109375 C 1.222656 -3.210938 1.039062 -3.382812 0.875 -3.625 C 0.71875 -3.863281 0.597656 -4.117188 0.515625 -4.390625 C 0.429688 -4.671875 0.390625 -4.910156 0.390625 -5.109375 C 0.390625 -5.535156 0.503906 -5.9375 0.734375 -6.3125 C 0.972656 -6.695312 1.316406 -7.003906 1.765625 -7.234375 C 2.210938 -7.472656 2.742188 -7.59375 3.359375 -7.59375 C 3.859375 -7.59375 4.300781 -7.476562 4.6875 -7.25 C 5.082031 -7.019531 5.390625 -6.710938 5.609375 -6.328125 C 5.828125 -5.941406 5.9375 -5.535156 5.9375 -5.109375 C 5.9375 -4.703125 5.859375 -4.304688 5.703125 -3.921875 C 5.546875 -3.535156 5.347656 -3.171875 5.109375 -2.828125 C 4.878906 -2.484375 4.566406 -2.066406 4.171875 -1.578125 Z M 6.03125 -1.578125 "/></g></g><g style="fill:#ffffff;fill-opacity:1;"><g transform="translate(231.602451, 286.614233)"><path style="stroke:none" d="M 2.8125 -5.09375 C 3.320312 -5.09375 3.765625 -4.976562 4.140625 -4.75 C 4.515625 -4.519531 4.800781 -4.210938 5 -3.828125 C 5.195312 -3.441406 5.296875 -3.019531 5.296875 -2.5625 C 5.296875 -2.070312 5.179688 -1.625 4.953125 -1.21875 C 4.722656 -0.8125 4.410156 -0.488281 4.015625 -0.25 C 3.628906 -0.0195312 3.203125 0.09375 2.734375 0.09375 C 2.296875 0.09375 1.863281 0.015625 1.4375 -0.140625 C 1.019531 -0.304688 0.691406 -0.515625 0.453125 -0.765625 L 1.296875 -2.0625 C 1.429688 -1.90625 1.625 -1.769531 1.875 -1.65625 C 2.132812 -1.550781 2.378906 -1.5 2.609375 -1.5 C 2.890625 -1.5 3.125 -1.585938 3.3125 -1.765625 C 3.5 -1.941406 3.59375 -2.1875 3.59375 -2.5 C 3.59375 -2.863281 3.488281 -3.15625 3.28125 -3.375 C 3.070312 -3.59375 2.785156 -3.703125 2.421875 -3.703125 C 2.179688 -3.703125 1.957031 -3.671875 1.75 -3.609375 C 1.539062 -3.546875 1.289062 -3.441406 1 -3.296875 L 1 -7.5 L 4.734375 -7.5 L 4.734375 -5.921875 L 2.40625 -5.921875 L 2.40625 -5.0625 C 2.5 -5.082031 2.632812 -5.09375 2.8125 -5.09375 Z M 2.8125 -5.09375 "/></g></g><g clip-rule="nonzero" clip-path="url(#401a52575f)"><path style=" stroke:none;fill-rule:evenodd;fill:#ffffff;fill-opacity:1;" d="M 147.113281 17.601562 C 193.75 5.878906 240.847656 13.742188 279.582031 36.105469 C 319.066406 58.898438 349.855469 96.757812 362.589844 144.277344 C 362.867188 145.328125 363.132812 146.378906 363.398438 147.425781 L 360.675781 148.378906 C 360.398438 147.257812 360.113281 146.140625 359.8125 145.019531 C 347.285156 98.265625 316.992188 61.015625 278.148438 38.585938 C 239.503906 16.277344 192.394531 8.636719 145.882812 20.882812 C 146.316406 19.800781 146.726562 18.707031 147.113281 17.601562 Z M 20.492188 233.003906 C 20.71875 233.921875 20.957031 234.832031 21.199219 235.75 C 33.726562 282.503906 64.019531 319.753906 102.867188 342.183594 C 141.691406 364.597656 189.066406 372.207031 235.796875 359.710938 C 235.34375 360.796875 234.921875 361.898438 234.519531 363.011719 C 187.683594 374.964844 140.332031 367.121094 101.429688 344.664062 C 61.945312 321.867188 31.160156 284.011719 18.429688 236.488281 C 18.203125 235.644531 17.984375 234.800781 17.769531 233.957031 Z M 20.492188 233.003906 "/></g><g style="fill:#ffffff;fill-opacity:1;"><g transform="translate(55.155158, 204.771542)"><path style="stroke:none" d="M 24.21875 -19.8125 C 26.1875 -18.894531 27.722656 -17.695312 28.828125 -16.21875 C 29.941406 -14.738281 30.5 -13.023438 30.5 -11.078125 C 30.5 -7.265625 29.242188 -4.460938 26.734375 -2.671875 C 24.234375 -0.890625 21.109375 0 17.359375 0 L 4.859375 0 L 4.859375 -37.59375 L 15.890625 -37.59375 C 19.867188 -37.59375 23 -36.78125 25.28125 -35.15625 C 27.5625 -33.539062 28.703125 -31.203125 28.703125 -28.140625 C 28.703125 -26.265625 28.3125 -24.617188 27.53125 -23.203125 C 26.75 -21.796875 25.644531 -20.664062 24.21875 -19.8125 Z M 12.265625 -22.21875 L 16.75 -22.21875 C 18.113281 -22.21875 19.171875 -22.632812 19.921875 -23.46875 C 20.671875 -24.300781 21.046875 -25.332031 21.046875 -26.5625 C 21.046875 -27.820312 20.617188 -28.78125 19.765625 -29.4375 C 18.910156 -30.101562 17.738281 -30.4375 16.25 -30.4375 L 12.265625 -30.4375 Z M 17.015625 -6.890625 C 18.742188 -6.890625 20.144531 -7.238281 21.21875 -7.9375 C 22.289062 -8.632812 22.828125 -9.679688 22.828125 -11.078125 C 22.828125 -13.734375 20.71875 -15.0625 16.5 -15.0625 L 12.265625 -15.0625 L 12.265625 -6.890625 Z M 17.015625 -6.890625 "/></g></g><g style="fill:#ffffff;fill-opacity:1;"><g transform="translate(129.071465, 204.771542)"><path style="stroke:none" d="M 12.265625 -37.59375 L 12.265625 -7.15625 L 29.9375 -7.15625 L 29.9375 0 L 4.859375 0 L 4.859375 -37.59375 Z M 12.265625 -37.59375 "/></g></g><g style="fill:#ffffff;fill-opacity:1;"><g transform="translate(202.681345, 204.771542)"><path style="stroke:none" d="M 2.546875 -18.75 C 2.546875 -22.15625 3.40625 -25.335938 5.125 -28.296875 C 6.851562 -31.253906 9.1875 -33.609375 12.125 -35.359375 C 15.070312 -37.117188 18.265625 -38 21.703125 -38 C 25.140625 -38 28.332031 -37.117188 31.28125 -35.359375 C 34.226562 -33.609375 36.578125 -31.253906 38.328125 -28.296875 C 40.085938 -25.335938 40.96875 -22.15625 40.96875 -18.75 C 40.96875 -15.269531 40.085938 -12.066406 38.328125 -9.140625 C 36.578125 -6.210938 34.226562 -3.890625 31.28125 -2.171875 C 28.332031 -0.453125 25.140625 0.40625 21.703125 0.40625 C 18.234375 0.40625 15.035156 -0.453125 12.109375 -2.171875 C 9.179688 -3.890625 6.851562 -6.210938 5.125 -9.140625 C 3.40625 -12.066406 2.546875 -15.269531 2.546875 -18.75 Z M 10.21875 -18.75 C 10.21875 -16.570312 10.734375 -14.5625 11.765625 -12.71875 C 12.804688 -10.875 14.21875 -9.414062 16 -8.34375 C 17.789062 -7.28125 19.78125 -6.75 21.96875 -6.75 C 24.070312 -6.75 25.992188 -7.28125 27.734375 -8.34375 C 29.472656 -9.414062 30.832031 -10.863281 31.8125 -12.6875 C 32.800781 -14.507812 33.296875 -16.53125 33.296875 -18.75 C 33.296875 -20.988281 32.785156 -23.03125 31.765625 -24.875 C 30.742188 -26.71875 29.359375 -28.171875 27.609375 -29.234375 C 25.859375 -30.304688 23.910156 -30.84375 21.765625 -30.84375 C 19.617188 -30.84375 17.664062 -30.304688 15.90625 -29.234375 C 14.15625 -28.171875 12.769531 -26.71875 11.75 -24.875 C 10.726562 -23.03125 10.21875 -20.988281 10.21875 -18.75 Z M 10.21875 -18.75 "/></g></g><g style="fill:#ffffff;fill-opacity:1;"><g transform="translate(287.067519, 204.771542)"><path style="stroke:none" d="M 35.34375 -3.78125 C 34.769531 -3.164062 33.738281 -2.523438 32.25 -1.859375 C 30.769531 -1.203125 29.132812 -0.660156 27.34375 -0.234375 C 25.5625 0.191406 23.9375 0.40625 22.46875 0.40625 C 18.488281 0.40625 14.988281 -0.363281 11.96875 -1.90625 C 8.957031 -3.457031 6.632812 -5.601562 5 -8.34375 C 3.363281 -11.09375 2.546875 -14.21875 2.546875 -17.71875 C 2.546875 -22.113281 3.414062 -25.832031 5.15625 -28.875 C 6.894531 -31.925781 9.226562 -34.207031 12.15625 -35.71875 C 15.082031 -37.238281 18.316406 -38 21.859375 -38 C 24.140625 -38 26.285156 -37.742188 28.296875 -37.234375 C 30.304688 -36.722656 32.078125 -36.0625 33.609375 -35.25 L 31.203125 -28.34375 C 30.222656 -28.894531 28.867188 -29.398438 27.140625 -29.859375 C 25.421875 -30.316406 23.984375 -30.546875 22.828125 -30.546875 C 18.742188 -30.546875 15.617188 -29.523438 13.453125 -27.484375 C 11.296875 -25.441406 10.21875 -22.410156 10.21875 -18.390625 C 10.21875 -16.078125 10.742188 -14.054688 11.796875 -12.328125 C 12.847656 -10.609375 14.316406 -9.289062 16.203125 -8.375 C 18.097656 -7.457031 20.253906 -7 22.671875 -7 C 24.992188 -7 26.71875 -7.320312 27.84375 -7.96875 L 27.84375 -12.515625 L 21.34375 -12.515625 L 21.34375 -19.671875 L 35.34375 -19.671875 Z M 35.34375 -3.78125 "/></g></g><g style="fill:#ffffff;fill-opacity:1;"><g transform="translate(108.704782, 245.508999)"><path style="stroke:none" d="M 13.578125 -15.53125 C 11.796875 -16.507812 10.25 -17 8.9375 -17 C 8.039062 -17 7.347656 -16.820312 6.859375 -16.46875 C 6.367188 -16.125 6.125 -15.597656 6.125 -14.890625 C 6.125 -14.242188 6.476562 -13.671875 7.1875 -13.171875 C 7.90625 -12.679688 8.859375 -12.210938 10.046875 -11.765625 C 11.015625 -11.421875 11.835938 -11.019531 12.515625 -10.5625 C 13.203125 -10.101562 13.773438 -9.472656 14.234375 -8.671875 C 14.691406 -7.878906 14.921875 -6.875 14.921875 -5.65625 C 14.921875 -4.59375 14.644531 -3.609375 14.09375 -2.703125 C 13.550781 -1.804688 12.75 -1.09375 11.6875 -0.5625 C 10.632812 -0.0390625 9.375 0.21875 7.90625 0.21875 C 6.675781 0.21875 5.457031 0.0390625 4.25 -0.3125 C 3.050781 -0.675781 1.929688 -1.226562 0.890625 -1.96875 L 2.671875 -5.125 C 3.378906 -4.601562 4.1875 -4.175781 5.09375 -3.84375 C 6 -3.507812 6.816406 -3.34375 7.546875 -3.34375 C 8.398438 -3.34375 9.140625 -3.519531 9.765625 -3.875 C 10.398438 -4.238281 10.71875 -4.832031 10.71875 -5.65625 C 10.71875 -6.707031 9.722656 -7.625 7.734375 -8.40625 C 6.566406 -8.863281 5.59375 -9.304688 4.8125 -9.734375 C 4.03125 -10.160156 3.359375 -10.769531 2.796875 -11.5625 C 2.234375 -12.363281 1.953125 -13.367188 1.953125 -14.578125 C 1.953125 -16.335938 2.53125 -17.753906 3.6875 -18.828125 C 4.84375 -19.910156 6.390625 -20.5 8.328125 -20.59375 C 9.847656 -20.59375 11.113281 -20.421875 12.125 -20.078125 C 13.144531 -19.734375 14.140625 -19.242188 15.109375 -18.609375 Z M 13.578125 -15.53125 "/></g></g><g style="fill:#ffffff;fill-opacity:1;"><g transform="translate(136.061234, 245.508999)"><path style="stroke:none" d="M 15.0625 -20.484375 L 15.0625 -16.578125 L 10.078125 -16.578125 L 10.078125 0 L 6.03125 0 L 6.03125 -16.578125 L 1.25 -16.578125 L 1.25 -20.484375 Z M 15.0625 -20.484375 "/></g></g><g style="fill:#ffffff;fill-opacity:1;"><g transform="translate(163.501166, 245.508999)"><path style="stroke:none" d="M 6.265625 -7.5625 C 6.265625 -6.914062 6.457031 -6.296875 6.84375 -5.703125 C 7.238281 -5.109375 7.757812 -4.625 8.40625 -4.25 C 9.050781 -3.882812 9.742188 -3.703125 10.484375 -3.703125 C 11.285156 -3.703125 12.019531 -3.882812 12.6875 -4.25 C 13.351562 -4.625 13.875 -5.109375 14.25 -5.703125 C 14.632812 -6.296875 14.828125 -6.914062 14.828125 -7.5625 L 14.828125 -20.484375 L 18.8125 -20.484375 L 18.8125 -7.484375 C 18.8125 -6.015625 18.4375 -4.691406 17.6875 -3.515625 C 16.945312 -2.335938 15.941406 -1.421875 14.671875 -0.765625 C 13.398438 -0.109375 12.003906 0.21875 10.484375 0.21875 C 8.960938 0.21875 7.570312 -0.109375 6.3125 -0.765625 C 5.050781 -1.421875 4.050781 -2.335938 3.3125 -3.515625 C 2.582031 -4.691406 2.21875 -6.015625 2.21875 -7.484375 L 2.21875 -20.484375 L 6.265625 -20.484375 Z M 6.265625 -7.5625 "/></g></g><g style="fill:#ffffff;fill-opacity:1;"><g transform="translate(195.671303, 245.508999)"><path style="stroke:none" d="M 2.640625 -20.484375 L 8.765625 -20.484375 C 11.378906 -20.484375 13.53125 -19.976562 15.21875 -18.96875 C 16.90625 -17.957031 18.132812 -16.648438 18.90625 -15.046875 C 19.675781 -13.441406 20.0625 -11.71875 20.0625 -9.875 C 20.0625 -7.90625 19.597656 -6.171875 18.671875 -4.671875 C 17.742188 -3.171875 16.492188 -2.015625 14.921875 -1.203125 C 13.359375 -0.398438 11.640625 0 9.765625 0 L 2.640625 0 Z M 9.078125 -3.890625 C 11.171875 -3.890625 12.828125 -4.425781 14.046875 -5.5 C 15.273438 -6.582031 15.890625 -8.132812 15.890625 -10.15625 C 15.890625 -11.789062 15.550781 -13.085938 14.875 -14.046875 C 14.195312 -15.015625 13.40625 -15.679688 12.5 -16.046875 C 11.601562 -16.421875 10.757812 -16.609375 9.96875 -16.609375 L 6.671875 -16.609375 L 6.671875 -3.890625 Z M 9.078125 -3.890625 "/></g></g><g style="fill:#ffffff;fill-opacity:1;"><g transform="translate(228.25882, 245.508999)"><path style="stroke:none" d="M 6.671875 -20.484375 L 6.671875 0 L 2.640625 0 L 2.640625 -20.484375 Z M 6.671875 -20.484375 "/></g></g><g style="fill:#ffffff;fill-opacity:1;"><g transform="translate(248.714746, 245.508999)"><path style="stroke:none" d="M 1.390625 -10.21875 C 1.390625 -12.070312 1.859375 -13.804688 2.796875 -15.421875 C 3.734375 -17.035156 5.003906 -18.316406 6.609375 -19.265625 C 8.210938 -20.222656 9.953125 -20.703125 11.828125 -20.703125 C 13.703125 -20.703125 15.441406 -20.222656 17.046875 -19.265625 C 18.648438 -18.316406 19.925781 -17.035156 20.875 -15.421875 C 21.832031 -13.804688 22.3125 -12.070312 22.3125 -10.21875 C 22.3125 -8.320312 21.832031 -6.578125 20.875 -4.984375 C 19.925781 -3.390625 18.648438 -2.125 17.046875 -1.1875 C 15.441406 -0.25 13.703125 0.21875 11.828125 0.21875 C 9.929688 0.21875 8.1875 -0.25 6.59375 -1.1875 C 5 -2.125 3.734375 -3.390625 2.796875 -4.984375 C 1.859375 -6.578125 1.390625 -8.320312 1.390625 -10.21875 Z M 5.5625 -10.21875 C 5.5625 -9.03125 5.84375 -7.929688 6.40625 -6.921875 C 6.976562 -5.921875 7.75 -5.128906 8.71875 -4.546875 C 9.695312 -3.960938 10.78125 -3.671875 11.96875 -3.671875 C 13.113281 -3.671875 14.160156 -3.960938 15.109375 -4.546875 C 16.054688 -5.128906 16.796875 -5.914062 17.328125 -6.90625 C 17.867188 -7.90625 18.140625 -9.007812 18.140625 -10.21875 C 18.140625 -11.4375 17.859375 -12.546875 17.296875 -13.546875 C 16.742188 -14.554688 15.988281 -15.351562 15.03125 -15.9375 C 14.082031 -16.519531 13.023438 -16.8125 11.859375 -16.8125 C 10.691406 -16.8125 9.628906 -16.519531 8.671875 -15.9375 C 7.710938 -15.351562 6.953125 -14.554688 6.390625 -13.546875 C 5.835938 -12.546875 5.5625 -11.4375 5.5625 -10.21875 Z M 5.5625 -10.21875 "/></g></g><g style="fill:#ffffff;fill-opacity:1;"><g transform="translate(160.022269, 185.244447)"><path style="stroke:none" d="M 84.484375 -88.796875 C 85.609375 -88.171875 85.296875 -87.421875 83.546875 -86.546875 L 81.671875 -85.796875 C 81.546875 -85.671875 81.296875 -85.796875 80.921875 -86.171875 C 80.671875 -86.546875 80.671875 -86.859375 80.921875 -87.109375 C 81.171875 -87.484375 81.234375 -87.703125 81.109375 -87.765625 C 80.984375 -87.828125 80.421875 -87.859375 79.421875 -87.859375 C 78.921875 -87.984375 78.296875 -88.078125 77.546875 -88.140625 C 76.804688 -88.203125 76.125 -88.296875 75.5 -88.421875 C 74.625 -88.546875 72.53125 -88.703125 69.21875 -88.890625 C 65.90625 -89.078125 62.09375 -89.234375 57.78125 -89.359375 C 53.476562 -89.484375 49.265625 -89.609375 45.140625 -89.734375 C 41.023438 -89.859375 37.59375 -89.921875 34.84375 -89.921875 L 34.09375 -89.921875 C 33.84375 -89.921875 33.4375 -89.953125 32.875 -90.015625 C 32.3125 -90.078125 31.65625 -90.046875 30.90625 -89.921875 L 29.96875 -89.359375 C 29.84375 -89.109375 29.625 -88.859375 29.3125 -88.609375 C 29 -88.359375 28.71875 -88.046875 28.46875 -87.671875 L 26.78125 -85.984375 C 26.28125 -85.234375 25.65625 -84.515625 24.90625 -83.828125 C 24.164062 -83.140625 23.296875 -82.234375 22.296875 -81.109375 L 19.109375 -77.734375 C 18.359375 -76.742188 17.671875 -75.9375 17.046875 -75.3125 C 16.796875 -75.0625 16.390625 -74.625 15.828125 -74 C 15.265625 -73.375 14.671875 -72.75 14.046875 -72.125 C 12.421875 -70.25 11.171875 -68.78125 10.296875 -67.71875 C 9.421875 -66.65625 8.550781 -65.625 7.6875 -64.625 L 5.4375 -62.1875 L 3.75 -60.125 L -1.3125 -54.515625 L -7.5 -47.390625 L -10.484375 -43.828125 C -12.484375 -41.585938 -14.734375 -38.90625 -17.234375 -35.78125 C -19.734375 -32.65625 -22.070312 -29.625 -24.25 -26.6875 C -26.4375 -23.757812 -28.15625 -21.421875 -29.40625 -19.671875 C -30.03125 -18.671875 -30.65625 -17.515625 -31.28125 -16.203125 C -31.90625 -14.890625 -32.28125 -13.984375 -32.40625 -13.484375 C -32.40625 -12.859375 -32.15625 -12.546875 -31.65625 -12.546875 C -31.15625 -12.421875 -31.03125 -12.171875 -31.28125 -11.796875 C -31.40625 -11.546875 -31.84375 -11.421875 -32.59375 -11.421875 C -33.09375 -11.546875 -33.46875 -12.046875 -33.71875 -12.921875 C -33.84375 -13.671875 -33.59375 -14.859375 -32.96875 -16.484375 C -32.71875 -17.109375 -32.5 -17.671875 -32.3125 -18.171875 C -32.125 -18.671875 -32.03125 -18.859375 -32.03125 -18.734375 C -31.90625 -18.734375 -31.84375 -18.921875 -31.84375 -19.296875 C -31.84375 -19.296875 -31.8125 -19.328125 -31.75 -19.390625 C -31.6875 -19.453125 -31.65625 -19.546875 -31.65625 -19.671875 C -31.40625 -19.546875 -31.21875 -19.734375 -31.09375 -20.234375 C -30.96875 -20.484375 -30.90625 -20.796875 -30.90625 -21.171875 L -30.90625 -21.546875 C -30.65625 -21.421875 -29.53125 -22.734375 -27.53125 -25.484375 L -19.859375 -35.78125 L -15.171875 -41.59375 C -14.171875 -42.832031 -13.265625 -43.953125 -12.453125 -44.953125 C -11.640625 -45.953125 -11.171875 -46.515625 -11.046875 -46.640625 C -10.796875 -46.765625 -10.453125 -47.078125 -10.015625 -47.578125 C -9.578125 -48.078125 -9.109375 -48.640625 -8.609375 -49.265625 C -7.117188 -51.265625 -6.0625 -52.609375 -5.4375 -53.296875 C -4.8125 -53.984375 -4.4375 -54.328125 -4.3125 -54.328125 C -4.1875 -54.328125 -3.9375 -54.640625 -3.5625 -55.265625 L -2.0625 -57.140625 L -0.5625 -58.828125 C 1.4375 -61.191406 2.875 -62.875 3.75 -63.875 C 4.625 -64.875 5.3125 -65.625 5.8125 -66.125 C 6.8125 -67.125 7.3125 -67.6875 7.3125 -67.8125 C 7.3125 -67.6875 7.804688 -68.21875 8.796875 -69.40625 C 9.796875 -70.59375 10.296875 -71.1875 10.296875 -71.1875 C 10.921875 -72.0625 12.046875 -73.429688 13.671875 -75.296875 C 15.296875 -77.171875 17.015625 -79.109375 18.828125 -81.109375 C 20.640625 -83.109375 21.984375 -84.546875 22.859375 -85.421875 L 25.109375 -87.859375 L 25.65625 -88.609375 L 26.21875 -88.984375 C 26.34375 -89.234375 26.46875 -89.421875 26.59375 -89.546875 C 26.71875 -89.671875 26.84375 -89.796875 26.96875 -89.921875 C 24.976562 -89.921875 22.671875 -89.921875 20.046875 -89.921875 C 17.421875 -89.921875 15.671875 -89.859375 14.796875 -89.734375 L 8.609375 -89.359375 L 3.5625 -89.171875 L -1.125 -88.796875 C -3.375 -88.671875 -5.460938 -88.515625 -7.390625 -88.328125 C -9.328125 -88.140625 -10.421875 -87.984375 -10.671875 -87.859375 C -11.921875 -87.609375 -13.296875 -87.421875 -14.796875 -87.296875 C -16.296875 -87.171875 -17.109375 -87.171875 -17.234375 -87.296875 C -17.859375 -87.921875 -17.296875 -88.484375 -15.546875 -88.984375 C -15.046875 -89.109375 -13.890625 -89.265625 -12.078125 -89.453125 C -10.265625 -89.640625 -8.359375 -89.828125 -6.359375 -90.015625 C -4.367188 -90.203125 -2.875 -90.296875 -1.875 -90.296875 L 2.25 -90.671875 L 28.65625 -91.234375 L 29.40625 -91.984375 L 30.90625 -93.65625 L 31.46875 -94.21875 C 31.71875 -94.46875 32.3125 -95 33.25 -95.8125 C 34.1875 -96.625 35.09375 -97.46875 35.96875 -98.34375 C 36.84375 -99.21875 37.34375 -99.71875 37.46875 -99.84375 C 37.59375 -100.09375 38.53125 -100.90625 40.28125 -102.28125 L 41.96875 -103.78125 C 42.09375 -104.03125 42.554688 -104.46875 43.359375 -105.09375 C 44.171875 -105.71875 44.640625 -106.03125 44.765625 -106.03125 C 45.140625 -106.03125 45.390625 -105.84375 45.515625 -105.46875 C 45.765625 -104.96875 45.703125 -104.53125 45.328125 -104.15625 L 44.578125 -103.21875 L 42.703125 -101.71875 C 42.085938 -101.21875 41.25 -100.46875 40.1875 -99.46875 C 39.125 -98.46875 38.40625 -97.71875 38.03125 -97.21875 C 37.28125 -96.34375 36.53125 -95.59375 35.78125 -94.96875 C 35.28125 -94.46875 34.65625 -93.84375 33.90625 -93.09375 C 33.15625 -92.351562 32.65625 -91.796875 32.40625 -91.421875 L 35.96875 -91.421875 L 41.21875 -91.234375 C 42.09375 -91.234375 44.273438 -91.171875 47.765625 -91.046875 C 51.265625 -90.921875 55.132812 -90.765625 59.375 -90.578125 C 63.625 -90.390625 67.5 -90.234375 71 -90.109375 C 74.5 -89.984375 76.742188 -89.859375 77.734375 -89.734375 C 79.859375 -89.609375 81.390625 -89.484375 82.328125 -89.359375 C 83.265625 -89.234375 83.984375 -89.046875 84.484375 -88.796875 Z M 84.484375 -88.796875 "/></g></g><g style="fill:#ffffff;fill-opacity:1;"><g transform="translate(179.129329, 185.244447)"><path style="stroke:none" d="M 67.4375 -103.03125 C 68.1875 -102.15625 68.0625 -101.03125 67.0625 -99.65625 C 66.6875 -99.03125 66.03125 -98.21875 65.09375 -97.21875 C 64.15625 -96.21875 63.4375 -95.59375 62.9375 -95.34375 L 60.125 -93.296875 C 59.632812 -92.796875 58.984375 -92.296875 58.171875 -91.796875 C 57.359375 -91.296875 56.703125 -90.859375 56.203125 -90.484375 L 53.390625 -88.796875 C 52.640625 -88.296875 52.078125 -88.046875 51.703125 -88.046875 C 51.203125 -87.796875 50.890625 -87.609375 50.765625 -87.484375 C 50.765625 -87.234375 50.453125 -86.984375 49.828125 -86.734375 L 48.703125 -86.359375 C 47.953125 -85.984375 46.671875 -85.328125 44.859375 -84.390625 C 43.054688 -83.453125 41.15625 -82.515625 39.15625 -81.578125 C 37.15625 -80.640625 35.46875 -79.859375 34.09375 -79.234375 C 33.09375 -78.734375 32.40625 -78.484375 32.03125 -78.484375 C 31.65625 -78.484375 30.59375 -78.046875 28.84375 -77.171875 L 25.65625 -75.875 C 25.539062 -75.75 25.109375 -75.5625 24.359375 -75.3125 C 23.609375 -75.0625 22.609375 -74.625 21.359375 -74 L 14.234375 -70.8125 L 13.296875 -70.25 L 10.109375 -67.0625 C 8.367188 -65.3125 6.46875 -63.40625 4.40625 -61.34375 C 2.34375 -59.289062 1.1875 -58.015625 0.9375 -57.515625 L 0.9375 -57.140625 C 1.0625 -57.015625 1.375 -57.078125 1.875 -57.328125 C 2 -57.328125 2.0625 -57.359375 2.0625 -57.421875 C 2.0625 -57.484375 2.125 -57.515625 2.25 -57.515625 C 3 -57.890625 3.84375 -58.265625 4.78125 -58.640625 C 5.71875 -59.015625 6.9375 -59.445312 8.4375 -59.9375 C 10.425781 -60.5625 11.609375 -60.625 11.984375 -60.125 C 12.109375 -59.875 11.859375 -59.378906 11.234375 -58.640625 C 9.484375 -56.890625 8.425781 -55.640625 8.0625 -54.890625 L 7.875 -54.328125 C 7.25 -53.078125 7.0625 -52.453125 7.3125 -52.453125 L 7.6875 -52.453125 L 8.4375 -52.640625 C 9.425781 -53.015625 11.171875 -53.765625 13.671875 -54.890625 C 16.171875 -56.015625 18.046875 -56.828125 19.296875 -57.328125 L 23.984375 -59.390625 C 24.359375 -59.390625 24.726562 -59.359375 25.09375 -59.296875 C 25.46875 -59.234375 25.222656 -58.890625 24.359375 -58.265625 C 23.234375 -57.890625 22.640625 -57.671875 22.578125 -57.609375 C 22.515625 -57.546875 22.453125 -57.484375 22.390625 -57.421875 C 22.328125 -57.359375 21.609375 -57.015625 20.234375 -56.390625 C 19.734375 -56.265625 19.328125 -56.046875 19.015625 -55.734375 C 18.703125 -55.421875 18.421875 -55.265625 18.171875 -55.265625 C 16.921875 -54.765625 16.203125 -54.421875 16.015625 -54.234375 C 15.828125 -54.046875 15.421875 -53.828125 14.796875 -53.578125 C 14.421875 -53.453125 13.296875 -52.984375 11.421875 -52.171875 C 9.546875 -51.359375 8.238281 -50.890625 7.5 -50.765625 L 7.125 -50.578125 C 6.75 -50.453125 6.25 -50.578125 5.625 -50.953125 C 4.875 -51.578125 4.8125 -52.640625 5.4375 -54.140625 L 6 -55.265625 C 6.25 -55.890625 6.625 -56.515625 7.125 -57.140625 C 7.625 -57.765625 7.9375 -58.078125 8.0625 -58.078125 C 8.1875 -58.078125 8.25 -58.140625 8.25 -58.265625 C 8.25 -58.390625 7.9375 -58.328125 7.3125 -58.078125 L 5.25 -57.328125 C 4.25 -57.078125 3.5625 -56.765625 3.1875 -56.390625 L 2.0625 -55.640625 L 1.875 -55.640625 L 0.75 -55.078125 L -1.5 -52.828125 L -1.875 -52.640625 L -2.4375 -52.265625 L -3 -51.703125 L -3.9375 -50.953125 L -4.5 -50.578125 C -4.75 -50.328125 -5.0625 -50.265625 -5.4375 -50.390625 C -5.5625 -50.515625 -5.78125 -50.671875 -6.09375 -50.859375 C -6.40625 -51.046875 -6.5625 -51.265625 -6.5625 -51.515625 C -6.5625 -51.890625 -6.40625 -52.265625 -6.09375 -52.640625 C -5.78125 -53.015625 -5.5 -53.328125 -5.25 -53.578125 L -3.5625 -55.453125 L -1.875 -57.515625 L -1.125 -58.265625 L 5.4375 -65.1875 C 6.4375 -66.0625 7.210938 -66.8125 7.765625 -67.4375 C 8.328125 -68.0625 8.609375 -68.375 8.609375 -68.375 C 8.492188 -68.5 8.21875 -68.5 7.78125 -68.375 C 7.34375 -68.25 7.125 -68.125 7.125 -68 C 7 -67.875 6.84375 -67.8125 6.65625 -67.8125 C 6.46875 -67.8125 6.3125 -67.75 6.1875 -67.625 L 2.8125 -66.5 C 1.8125 -66.25 1.125 -66 0.75 -65.75 L -1.125 -64.8125 C -2.125 -64.5625 -2.75 -64.4375 -3 -64.4375 C -3.75 -64.4375 -3.9375 -64.8125 -3.5625 -65.5625 C -3.3125 -65.8125 -2.8125 -66.0625 -2.0625 -66.3125 L 3.75 -68.375 L 5.625 -69.125 C 5.875 -69.375 6.25 -69.5625 6.75 -69.6875 C 7.5 -70.0625 8 -70.25 8.25 -70.25 C 8.375 -70.25 8.460938 -70.28125 8.515625 -70.34375 C 8.578125 -70.40625 8.609375 -70.4375 8.609375 -70.4375 C 8.609375 -70.4375 9.171875 -70.6875 10.296875 -71.1875 L 11.984375 -71.75 C 12.234375 -72 12.609375 -72.34375 13.109375 -72.78125 C 13.609375 -73.21875 14.109375 -73.6875 14.609375 -74.1875 L 20.984375 -79.796875 L 24.921875 -83.171875 L 30.90625 -87.859375 C 31.03125 -87.984375 31.625 -88.421875 32.6875 -89.171875 C 33.75 -89.921875 34.84375 -90.671875 35.96875 -91.421875 L 39.15625 -93.484375 L 40.84375 -94.59375 L 42.890625 -95.71875 C 47.265625 -98.21875 51.640625 -100.09375 56.015625 -101.34375 L 57.515625 -101.71875 C 58.515625 -102.21875 59.757812 -102.59375 61.25 -102.84375 L 63.3125 -103.21875 C 64.3125 -103.46875 65.21875 -103.5625 66.03125 -103.5 C 66.84375 -103.4375 67.3125 -103.28125 67.4375 -103.03125 Z M 65.5625 -100.21875 C 65.5625 -100.21875 65.59375 -100.28125 65.65625 -100.40625 C 65.71875 -100.53125 65.75 -100.65625 65.75 -100.78125 C 65.625 -101.15625 65.375 -101.40625 65 -101.53125 C 64.75 -101.65625 64.03125 -101.65625 62.84375 -101.53125 C 61.65625 -101.40625 60.9375 -101.28125 60.6875 -101.15625 L 57.703125 -100.21875 C 56.078125 -99.71875 54.140625 -99.0625 51.890625 -98.25 C 49.640625 -97.4375 47.640625 -96.59375 45.890625 -95.71875 C 43.523438 -94.46875 41.03125 -93 38.40625 -91.3125 C 35.78125 -89.632812 33.78125 -88.234375 32.40625 -87.109375 L 30.90625 -85.984375 C 30.78125 -85.984375 30.0625 -85.453125 28.75 -84.390625 C 27.4375 -83.328125 25.9375 -82.078125 24.25 -80.640625 C 22.570312 -79.203125 21.109375 -77.921875 19.859375 -76.796875 L 17.609375 -74.9375 C 17.484375 -74.9375 17.421875 -74.75 17.421875 -74.375 C 17.421875 -74.25 18.046875 -74.4375 19.296875 -74.9375 C 19.921875 -75.1875 20.421875 -75.4375 20.796875 -75.6875 C 21.171875 -75.9375 21.421875 -76.0625 21.546875 -76.0625 C 21.796875 -76.0625 22.421875 -76.304688 23.421875 -76.796875 C 23.921875 -77.046875 24.328125 -77.234375 24.640625 -77.359375 C 24.953125 -77.484375 25.171875 -77.546875 25.296875 -77.546875 C 25.421875 -77.546875 26.101562 -77.796875 27.34375 -78.296875 L 31.46875 -79.984375 L 35.21875 -81.671875 L 37.84375 -82.609375 C 38.09375 -82.734375 38.53125 -82.921875 39.15625 -83.171875 C 39.78125 -83.421875 40.34375 -83.734375 40.84375 -84.109375 L 44.390625 -85.796875 L 46.453125 -86.921875 L 48.703125 -88.046875 L 55.078125 -91.609375 C 56.328125 -92.359375 57.570312 -93.164062 58.8125 -94.03125 C 60.0625 -94.90625 60.9375 -95.59375 61.4375 -96.09375 L 63.3125 -97.59375 C 63.4375 -97.59375 63.8125 -98.03125 64.4375 -98.90625 Z M 65.5625 -100.21875 "/></g></g><g style="fill:#ffffff;fill-opacity:1;"><g transform="translate(206.103969, 185.244447)"><path style="stroke:none" d="M -1.875 -51.140625 C -3.375 -51.015625 -4.3125 -50.984375 -4.6875 -51.046875 C -5.0625 -51.109375 -5.3125 -51.453125 -5.4375 -52.078125 C -5.6875 -52.703125 -5.4375 -53.640625 -4.6875 -54.890625 C -3.6875 -56.390625 -2.25 -57.882812 -0.375 -59.375 C 1.5 -60.875 3.375 -61.9375 5.25 -62.5625 C 8.238281 -63.6875 9.921875 -63.75 10.296875 -62.75 C 10.421875 -62.25 9.050781 -61.003906 6.1875 -59.015625 C 4.5625 -57.890625 3.21875 -57.046875 2.15625 -56.484375 C 1.09375 -55.921875 0.0625 -55.515625 -0.9375 -55.265625 C -2.0625 -55.015625 -2.75 -54.578125 -3 -53.953125 C -3.5 -53.453125 -3.5625 -53.140625 -3.1875 -53.015625 C -2.0625 -52.640625 3.804688 -54.765625 14.421875 -59.390625 L 14.796875 -59.578125 L 15.359375 -59.578125 L 15.546875 -59.390625 C 16.046875 -59.140625 16.109375 -58.828125 15.734375 -58.453125 L 13.296875 -57.328125 L 4.875 -53.578125 C 3.25 -52.703125 1.96875 -52.140625 1.03125 -51.890625 C 0.09375 -51.640625 -0.875 -51.390625 -1.875 -51.140625 Z M -0.375 -57.328125 C -0.5 -57.203125 -0.28125 -57.234375 0.28125 -57.421875 C 0.84375 -57.609375 1.625 -57.953125 2.625 -58.453125 C 3.5 -58.953125 4.46875 -59.539062 5.53125 -60.21875 C 6.59375 -60.90625 7.1875 -61.3125 7.3125 -61.4375 C 7.3125 -61.6875 6.96875 -61.65625 6.28125 -61.34375 C 5.59375 -61.03125 4.9375 -60.75 4.3125 -60.5 C 3.6875 -60.375 2.78125 -59.875 1.59375 -59 C 0.40625 -58.132812 -0.25 -57.578125 -0.375 -57.328125 Z M -0.375 -57.328125 "/></g></g><g style="fill:#ffffff;fill-opacity:1;"><g transform="translate(142.826148, 286.614233)"><path style="stroke:none" d="M 6.75 -8.328125 L 6.75 -6.75 L 2.71875 -6.75 L 2.71875 -4.96875 L 6.296875 -4.96875 L 6.296875 -3.375 L 2.71875 -3.375 L 2.71875 -1.578125 L 6.90625 -1.578125 L 6.90625 0 L 1.078125 0 L 1.078125 -8.328125 Z M 6.75 -8.328125 "/></g></g><g style="fill:#ffffff;fill-opacity:1;"><g transform="translate(154.882354, 286.614233)"><path style="stroke:none" d="M 5.515625 -6.3125 C 4.796875 -6.707031 4.164062 -6.90625 3.625 -6.90625 C 3.269531 -6.90625 2.988281 -6.832031 2.78125 -6.6875 C 2.582031 -6.550781 2.484375 -6.335938 2.484375 -6.046875 C 2.484375 -5.785156 2.628906 -5.554688 2.921875 -5.359375 C 3.210938 -5.160156 3.597656 -4.96875 4.078125 -4.78125 C 4.472656 -4.632812 4.8125 -4.46875 5.09375 -4.28125 C 5.375 -4.101562 5.601562 -3.851562 5.78125 -3.53125 C 5.96875 -3.207031 6.0625 -2.796875 6.0625 -2.296875 C 6.0625 -1.867188 5.945312 -1.46875 5.71875 -1.09375 C 5.5 -0.726562 5.175781 -0.4375 4.75 -0.21875 C 4.320312 -0.0078125 3.8125 0.09375 3.21875 0.09375 C 2.71875 0.09375 2.222656 0.0195312 1.734375 -0.125 C 1.242188 -0.269531 0.785156 -0.492188 0.359375 -0.796875 L 1.09375 -2.078125 C 1.375 -1.867188 1.695312 -1.695312 2.0625 -1.5625 C 2.4375 -1.425781 2.769531 -1.359375 3.0625 -1.359375 C 3.414062 -1.359375 3.71875 -1.429688 3.96875 -1.578125 C 4.226562 -1.722656 4.359375 -1.960938 4.359375 -2.296875 C 4.359375 -2.722656 3.953125 -3.097656 3.140625 -3.421875 C 2.671875 -3.609375 2.273438 -3.785156 1.953125 -3.953125 C 1.640625 -4.128906 1.367188 -4.378906 1.140625 -4.703125 C 0.910156 -5.023438 0.796875 -5.429688 0.796875 -5.921875 C 0.796875 -6.640625 1.03125 -7.21875 1.5 -7.65625 C 1.96875 -8.09375 2.59375 -8.332031 3.375 -8.375 C 4 -8.375 4.515625 -8.300781 4.921875 -8.15625 C 5.335938 -8.019531 5.742188 -7.820312 6.140625 -7.5625 Z M 5.515625 -6.3125 "/></g></g><g style="fill:#ffffff;fill-opacity:1;"><g transform="translate(165.99985, 286.614233)"><path style="stroke:none" d="M 6.125 -8.328125 L 6.125 -6.75 L 4.09375 -6.75 L 4.09375 0 L 2.453125 0 L 2.453125 -6.75 L 0.515625 -6.75 L 0.515625 -8.328125 Z M 6.125 -8.328125 "/></g></g><g style="fill:#ffffff;fill-opacity:1;"><g transform="translate(177.151271, 286.614233)"><path style="stroke:none" d="M 1.078125 -8.328125 L 3.5625 -8.328125 C 4.625 -8.328125 5.5 -8.117188 6.1875 -7.703125 C 6.875 -7.296875 7.375 -6.765625 7.6875 -6.109375 C 8 -5.460938 8.15625 -4.765625 8.15625 -4.015625 C 8.15625 -3.210938 7.96875 -2.503906 7.59375 -1.890625 C 7.21875 -1.285156 6.707031 -0.816406 6.0625 -0.484375 C 5.425781 -0.160156 4.726562 0 3.96875 0 L 1.078125 0 Z M 3.6875 -1.578125 C 4.539062 -1.578125 5.210938 -1.796875 5.703125 -2.234375 C 6.203125 -2.671875 6.453125 -3.300781 6.453125 -4.125 C 6.453125 -4.789062 6.316406 -5.316406 6.046875 -5.703125 C 5.773438 -6.097656 5.453125 -6.367188 5.078125 -6.515625 C 4.710938 -6.671875 4.367188 -6.75 4.046875 -6.75 L 2.71875 -6.75 L 2.71875 -1.578125 Z M 3.6875 -1.578125 "/></g></g><g style="fill:#ffffff;fill-opacity:1;"><g transform="translate(190.395007, 286.614233)"><path style="stroke:none" d=""/></g></g><g style="fill:#ffffff;fill-opacity:1;"><g transform="translate(198.594571, 286.614233)"><path style="stroke:none" d="M 6.03125 -1.578125 L 6.03125 0 L 0.609375 0 C 1.015625 -0.40625 1.21875 -0.609375 1.21875 -0.609375 C 1.925781 -1.335938 2.472656 -1.921875 2.859375 -2.359375 C 3.253906 -2.796875 3.582031 -3.238281 3.84375 -3.6875 C 4.101562 -4.132812 4.234375 -4.5625 4.234375 -4.96875 C 4.234375 -5.28125 4.125 -5.53125 3.90625 -5.71875 C 3.695312 -5.90625 3.421875 -6 3.078125 -6 C 2.742188 -6 2.476562 -5.910156 2.28125 -5.734375 C 2.082031 -5.566406 1.984375 -5.375 1.984375 -5.15625 C 1.984375 -4.707031 2.132812 -4.332031 2.4375 -4.03125 L 1.421875 -3.109375 C 1.222656 -3.210938 1.039062 -3.382812 0.875 -3.625 C 0.71875 -3.863281 0.597656 -4.117188 0.515625 -4.390625 C 0.429688 -4.671875 0.390625 -4.910156 0.390625 -5.109375 C 0.390625 -5.535156 0.503906 -5.9375 0.734375 -6.3125 C 0.972656 -6.695312 1.316406 -7.003906 1.765625 -7.234375 C 2.210938 -7.472656 2.742188 -7.59375 3.359375 -7.59375 C 3.859375 -7.59375 4.300781 -7.476562 4.6875 -7.25 C 5.082031 -7.019531 5.390625 -6.710938 5.609375 -6.328125 C 5.828125 -5.941406 5.9375 -5.535156 5.9375 -5.109375 C 5.9375 -4.703125 5.859375 -4.304688 5.703125 -3.921875 C 5.546875 -3.535156 5.347656 -3.171875 5.109375 -2.828125 C 4.878906 -2.484375 4.566406 -2.066406 4.171875 -1.578125 Z M 6.03125 -1.578125 "/></g></g><g style="fill:#ffffff;fill-opacity:1;"><g transform="translate(209.712068, 286.614233)"><path style="stroke:none" d="M 3.546875 0.015625 C 2.953125 0.015625 2.414062 -0.125 1.9375 -0.40625 C 1.46875 -0.6875 1.09375 -1.109375 0.8125 -1.671875 C 0.53125 -2.242188 0.390625 -2.953125 0.390625 -3.796875 C 0.390625 -6.335938 1.441406 -7.601562 3.546875 -7.59375 C 4.148438 -7.601562 4.6875 -7.460938 5.15625 -7.171875 C 5.632812 -6.890625 6.007812 -6.460938 6.28125 -5.890625 C 6.5625 -5.328125 6.703125 -4.628906 6.703125 -3.796875 C 6.703125 -2.929688 6.5625 -2.210938 6.28125 -1.640625 C 6.007812 -1.078125 5.632812 -0.660156 5.15625 -0.390625 C 4.6875 -0.117188 4.148438 0.015625 3.546875 0.015625 Z M 3.546875 -1.5625 C 4.066406 -1.5625 4.4375 -1.765625 4.65625 -2.171875 C 4.882812 -2.578125 5 -3.128906 5 -3.828125 C 5 -5.273438 4.515625 -6 3.546875 -6 C 3.023438 -6 2.65625 -5.800781 2.4375 -5.40625 C 2.21875 -5.019531 2.109375 -4.484375 2.109375 -3.796875 C 2.109375 -3.109375 2.21875 -2.5625 2.4375 -2.15625 C 2.65625 -1.757812 3.023438 -1.5625 3.546875 -1.5625 Z M 3.546875 -1.5625 "/></g></g><g style="fill:#ffffff;fill-opacity:1;"><g transform="translate(221.33851, 286.614233)"><path style="stroke:none" d="M 6.03125 -1.578125 L 6.03125 0 L 0.609375 0 C 1.015625 -0.40625 1.21875 -0.609375 1.21875 -0.609375 C 1.925781 -1.335938 2.472656 -1.921875 2.859375 -2.359375 C 3.253906 -2.796875 3.582031 -3.238281 3.84375 -3.6875 C 4.101562 -4.132812 4.234375 -4.5625 4.234375 -4.96875 C 4.234375 -5.28125 4.125 -5.53125 3.90625 -5.71875 C 3.695312 -5.90625 3.421875 -6 3.078125 -6 C 2.742188 -6 2.476562 -5.910156 2.28125 -5.734375 C 2.082031 -5.566406 1.984375 -5.375 1.984375 -5.15625 C 1.984375 -4.707031 2.132812 -4.332031 2.4375 -4.03125 L 1.421875 -3.109375 C 1.222656 -3.210938 1.039062 -3.382812 0.875 -3.625 C 0.71875 -3.863281 0.597656 -4.117188 0.515625 -4.390625 C 0.429688 -4.671875 0.390625 -4.910156 0.390625 -5.109375 C 0.390625 -5.535156 0.503906 -5.9375 0.734375 -6.3125 C 0.972656 -6.695312 1.316406 -7.003906 1.765625 -7.234375 C 2.210938 -7.472656 2.742188 -7.59375 3.359375 -7.59375 C 3.859375 -7.59375 4.300781 -7.476562 4.6875 -7.25 C 5.082031 -7.019531 5.390625 -6.710938 5.609375 -6.328125 C 5.828125 -5.941406 5.9375 -5.535156 5.9375 -5.109375 C 5.9375 -4.703125 5.859375 -4.304688 5.703125 -3.921875 C 5.546875 -3.535156 5.347656 -3.171875 5.109375 -2.828125 C 4.878906 -2.484375 4.566406 -2.066406 4.171875 -1.578125 Z M 6.03125 -1.578125 "/></g></g><g style="fill:#ffffff;fill-opacity:1;"><g transform="translate(232.456006, 286.614233)"><path style="stroke:none" d="M 2.8125 -5.09375 C 3.320312 -5.09375 3.765625 -4.976562 4.140625 -4.75 C 4.515625 -4.519531 4.800781 -4.210938 5 -3.828125 C 5.195312 -3.441406 5.296875 -3.019531 5.296875 -2.5625 C 5.296875 -2.070312 5.179688 -1.625 4.953125 -1.21875 C 4.722656 -0.8125 4.410156 -0.488281 4.015625 -0.25 C 3.628906 -0.0195312 3.203125 0.09375 2.734375 0.09375 C 2.296875 0.09375 1.863281 0.015625 1.4375 -0.140625 C 1.019531 -0.304688 0.691406 -0.515625 0.453125 -0.765625 L 1.296875 -2.0625 C 1.429688 -1.90625 1.625 -1.769531 1.875 -1.65625 C 2.132812 -1.550781 2.378906 -1.5 2.609375 -1.5 C 2.890625 -1.5 3.125 -1.585938 3.3125 -1.765625 C 3.5 -1.941406 3.59375 -2.1875 3.59375 -2.5 C 3.59375 -2.863281 3.488281 -3.15625 3.28125 -3.375 C 3.070312 -3.59375 2.785156 -3.703125 2.421875 -3.703125 C 2.179688 -3.703125 1.957031 -3.671875 1.75 -3.609375 C 1.539062 -3.546875 1.289062 -3.441406 1 -3.296875 L 1 -7.5 L 4.734375 -7.5 L 4.734375 -5.921875 L 2.40625 -5.921875 L 2.40625 -5.0625 C 2.5 -5.082031 2.632812 -5.09375 2.8125 -5.09375 Z M 2.8125 -5.09375 "/></g></g></g></svg>